<?xml version="1.0" encoding="UTF-8" standalone="no"?>
<svg
   xmlns:osb="http://www.openswatchbook.org/uri/2009/osb"
   xmlns:dc="http://purl.org/dc/elements/1.1/"
   xmlns:cc="http://creativecommons.org/ns#"
   xmlns:rdf="http://www.w3.org/1999/02/22-rdf-syntax-ns#"
   xmlns:svg="http://www.w3.org/2000/svg"
   xmlns="http://www.w3.org/2000/svg"
   xmlns:xlink="http://www.w3.org/1999/xlink"
   xmlns:sodipodi="http://sodipodi.sourceforge.net/DTD/sodipodi-0.dtd"
   xmlns:inkscape="http://www.inkscape.org/namespaces/inkscape"
   id="svg2"
   width="934.52765"
   version="1.1"
   height="394.53046"
   sodipodi:docname="logo.svg"
   inkscape:version="0.92.0 r">
  <sodipodi:namedview
     pagecolor="#ffffff"
     bordercolor="#666666"
     borderopacity="1"
     objecttolerance="10"
     gridtolerance="10"
     guidetolerance="10"
     inkscape:pageopacity="0"
     inkscape:pageshadow="2"
     inkscape:window-width="3840"
     inkscape:window-height="2034"
     id="namedview74"
     showgrid="false"
     inkscape:zoom="1.84375"
     inkscape:cx="233.55008"
     inkscape:cy="262.26552"
     inkscape:window-x="0"
     inkscape:window-y="0"
     inkscape:window-maximized="1"
     inkscape:current-layer="RenderLayer_LineSet"
     fit-margin-top="0"
     fit-margin-left="0"
     fit-margin-right="0"
     fit-margin-bottom="0" />
  <metadata
     id="metadata62">
    <rdf:RDF>
      <cc:Work
         rdf:about="">
        <dc:format>image/svg+xml</dc:format>
        <dc:type
           rdf:resource="http://purl.org/dc/dcmitype/StillImage" />
        <dc:title></dc:title>
      </cc:Work>
    </rdf:RDF>
  </metadata>
  <defs
     id="defs60">
    <inkscape:path-effect
       effect="perspective-envelope"
       up_left_point="236.86823,329.67114"
       up_right_point="774.6506,329.67114"
       down_left_point="236.86823,430.91409"
       down_right_point="774.6506,430.91409"
       id="path-effect4621"
       is_visible="true"
       deform_type="perspective"
       horizontal_mirror="false"
       vertical_mirror="true"
       overflow_perspective="false" />
    <linearGradient
       id="linearGradient4606">
      <stop
         id="stop4598"
         offset="0"
         style="stop-color:#f0e500;stop-opacity:0.960199" />
      <stop
         id="stop4604"
         offset="1"
         style="stop-color:#000000;stop-opacity:1" />
    </linearGradient>
    <linearGradient
       id="linearGradient5861">
      <stop
         style="stop-color:#f0e500;stop-opacity:0"
         offset="0"
         id="stop5863" />
      <stop
         id="stop5865"
         offset="0.2"
         style="stop-color:#f0e500;stop-opacity:1" />
      <stop
         style="stop-color:#f0e500;stop-opacity:1"
         offset="0.80000001"
         id="stop5867" />
      <stop
         style="stop-color:#f0e500;stop-opacity:0"
         offset="1"
         id="stop5869" />
    </linearGradient>
    <linearGradient
       osb:paint="solid"
       id="linearGradient4269">
      <stop
         id="stop4271"
         offset="0"
         style="stop-color:#61ff65;stop-opacity:1;" />
    </linearGradient>
    <linearGradient
       gradientTransform="translate(-1.9824219e-6,-51.215922)"
       gradientUnits="userSpaceOnUse"
       y2="260.854"
       x2="845.23816"
       y1="260.854"
       x1="177.616"
       id="linearGradient5789"
       xlink:href="#linearGradient5861" />
    <linearGradient
       gradientTransform="translate(-1.9824219e-6,-51.215922)"
       gradientUnits="userSpaceOnUse"
       y2="314.26221"
       x2="512"
       y1="206.64407"
       x1="512"
       id="linearGradient5791"
       xlink:href="#linearGradient5861" />
    <linearGradient
       gradientTransform="translate(-1.9824219e-6,-51.215922)"
       gradientUnits="userSpaceOnUse"
       y2="332.138"
       x2="788.2702"
       y1="221.10539"
       x1="341.8299"
       id="linearGradient5831"
       xlink:href="#linearGradient5861" />
    <linearGradient
       gradientTransform="translate(-1.9824219e-6,-51.215922)"
       gradientUnits="userSpaceOnUse"
       y2="220.03236"
       x2="681.8186"
       y1="331.3494"
       x1="235.50389"
       id="linearGradient5839"
       xlink:href="#linearGradient5861" />
  </defs>
  <g
     id="RenderLayer_LineSet"
     transform="translate(-44.736191,-79.665424)">
    <g
       style="display:none"
       id="strokes">
      <path
         style="fill:none;stroke:#000000;stroke-width:3;stroke-linecap:butt;stroke-linejoin:round;stroke-opacity:1"
         id="path6"
         d="m 497.326,183.768 -0.642,9.98 -0.643,9.979 -0.643,9.979 -0.642,9.98 -0.504,7.819 -0.311,4.837"
         inkscape:connector-curvature="0" />
      <path
         style="fill:none;stroke:#000000;stroke-width:3;stroke-linecap:butt;stroke-linejoin:round;stroke-opacity:1"
         id="path8"
         d="m 688.97,231.719 0.037,0.073 6.259,7.799 0.202,0.251 1.598,1.525"
         inkscape:connector-curvature="0" />
      <path
         style="fill:none;stroke:#000000;stroke-width:3;stroke-linecap:butt;stroke-linejoin:round;stroke-opacity:1"
         id="path10"
         d="m 775.326,241.367 5.354,-5.364 5.479,-8.365 0.345,-0.527 3.654,-9.309 0.247,-0.629 0.647,-2.303 1.682,-9.857 0.118,-0.694 -0.37,-9.993 -0.026,-0.7 -2.415,-9.704 -0.176,-0.708 -4.353,-9.003 -0.343,-0.709 -1.236,-1.692 -6.096,-7.927 -0.297,-0.386 -7.608,-6.491 -0.417,-0.356 -8.777,-4.792 -0.568,-0.31 -1.298,-0.7 -2.054,-0.67 -8.626,-2.467 -1.384,-0.31 -1.678,-0.271 -1.91,-0.222 -2.067,-0.165 -2.148,-0.101 -2.147,-0.034 -2.066,0.034 -1.909,0.101 -1.68,0.165 -1.386,0.222 -8.842,1.902 -2.052,0.534 -9.083,4.148 -1.93,0.904 -8.085,5.884 -0.457,0.332 -6.746,7.381 -0.322,0.352 -1.272,1.578 -5.156,8.567 -0.372,0.617 -3.357,9.42 -0.205,0.577 -1.405,9.901 -0.021,0.15"
         inkscape:connector-curvature="0" />
      <path
         style="fill:none;stroke:#000000;stroke-width:3;stroke-linecap:butt;stroke-linejoin:round;stroke-opacity:1"
         id="path12"
         d="m 343.488,199.377 -1.405,-9.901 -0.021,-0.15 -3.357,-9.42 -0.205,-0.577 -5.157,-8.567 -0.371,-0.617 -1.272,-1.578 -6.747,-7.381 -0.321,-0.352 -8.086,-5.884 -0.456,-0.332 -1.93,-0.904 -9.083,-4.148 -2.052,-0.534 -8.842,-1.902 -1.386,-0.222 -1.68,-0.165 -1.908,-0.101 -2.067,-0.034 -2.147,0.034 -2.148,0.101 -2.067,0.165 -1.91,0.222 -1.678,0.271 -1.384,0.31 -8.626,2.467 -2.054,0.67 -1.298,0.7 -8.777,4.792 -0.568,0.31 -7.607,6.491 -0.418,0.356 -6.096,7.927 -0.297,0.386 -1.236,1.692 -4.353,9.003 -0.343,0.709 -2.415,9.704 -0.176,0.708 -0.37,9.993 -0.026,0.7 1.682,9.858 0.118,0.693 0.647,2.303 3.654,9.308 0.247,0.63 5.479,8.365 0.345,0.527 5.354,5.364"
         inkscape:connector-curvature="0" />
      <path
         style="fill:none;stroke:#000000;stroke-width:3;stroke-linecap:butt;stroke-linejoin:round;stroke-opacity:1"
         id="path14"
         d="m 326.934,241.367 1.598,-1.525 6.26,-7.799 0.201,-0.251 0.037,-0.073"
         inkscape:connector-curvature="0" />
      <path
         style="fill:none;stroke:#000000;stroke-width:3;stroke-linecap:butt;stroke-linejoin:round;stroke-opacity:1"
         id="path16"
         d="m 529.748,231.505 0.232,-0.106 8.227,-3.782 7.283,-5.503 1.856,-1.552 6.335,-7.262 4.764,-8.442 2.995,-9.304 0.545,-2.016 1.096,-9.77 -0.866,-9.814 -2.808,-9.481 -4.654,-8.775 -1.121,-1.427 -6.126,-7.463 -7.531,-6.079 -8.656,-4.444 -1.178,-0.573 -1.862,-0.525 -7.936,-2.08 -1.257,-0.232 -1.525,-0.19 -1.733,-0.141 -1.878,-0.087 -1.95,-0.029 -1.95,0.029 -1.878,0.087 -1.733,0.141 -1.525,0.19 -1.257,0.232 -7.936,2.08 -1.862,0.525 -1.178,0.573 -8.656,4.444 -7.531,6.079 -6.126,7.463 -1.121,1.427 -4.654,8.775 -2.808,9.48 -0.866,9.815 1.096,9.77 0.545,2.016 2.995,9.304 4.764,8.442 6.335,7.262 1.856,1.552 7.283,5.503 8.227,3.782 0.232,0.106"
         inkscape:connector-curvature="0" />
      <path
         style="fill:none;stroke:#000000;stroke-width:3;stroke-linecap:butt;stroke-linejoin:round;stroke-opacity:1"
         id="path18"
         d="m 190.295,277.565 -2.294,-1.171 -1.766,-0.903 -9.476,-3.195 -5.208,-1.756 -3.938,-1.155 -4.965,-0.853 -5.809,-0.523 -8.83,-0.478 -3.335,-0.091 -3.55,0.091 -3.634,0.27 -3.585,0.44 -3.404,0.593 -5.466,1.237 -2.075,0.469 -6.047,1.419 -3.42,1.066 -1.829,0.569 -4.245,1.793 -8.824,4.706 -4.712,2.514 -4.554,2.795 -7.598,6.502 -5.126,4.386 -3.527,3.738 -6.059,7.955 -0.831,1.092 -3.782,4.965 -4.238,9.058 -3.087,6.598 -1.466,5.21 -2.181,9.759 -1.663,7.442 0.009,10 0.006,7.299 2.239,9.746 1.591,6.925 2.207,5.883 4.376,8.992 3.013,6.19 6.309,7.759 4.258,5.237 5.195,4.697 7.917,6.109 4.612,3.558 6.985,3.369 9.142,4.054 3.78,1.676 7.207,1.987 8.624,1.232 8.922,1.217 6.57,0.284 6.995,-0.284 7.127,-0.838 6.963,-1.355 6.513,-1.812 5.802,-2.19 9.239,-3.826 0.608,-0.252 7.042,-3.588 5.374,-3.832 7.875,-6.164 3.916,-3.065 4.387,-4.906 6.292,-7.773 3.84,-4.744 4.489,-8.935 2.733,-5.44 2.269,-5.929 2.501,-9.683 1.598,-6.187 0.376,-9.39 0.279,-6.979 -1.726,-9.85 -1.125,-6.423 -1.056,-5.276 -3.778,-9.259 -2.379,-5.827 -2.449,-3.575 -5.652,-8.249 -1.249,-1.823 -3.563,-3.755 -7.256,-6.881 -4.38,-4.152 -8.551,-5.185 -0.546,-0.33 -4.946,-2.999"
         inkscape:connector-curvature="0" />
      <path
         style="fill:none;stroke:#000000;stroke-width:3;stroke-linecap:butt;stroke-linejoin:round;stroke-opacity:1"
         id="path20"
         d="m 187.085,241.367 -3.812,-9.245 -0.942,-2.286 -5.624,-8.269 -1.73,-2.544 -7.164,-6.977 -2.402,-2.339 -1.946,-1.808 -8.424,-5.39 -2.553,-1.633 -2.911,-1.205 -9.332,-3.593 -2.156,-0.83 -2.904,-0.669 -9.893,-1.465 -1.106,-0.163 -1.904,-0.254 -2.257,-0.155 -2.526,-0.053 -2.702,0.053 -2.777,0.155 -2.748,0.254 -2.617,0.341 -2.388,0.418 -2.067,0.479 -9.61,2.765 -0.198,0.057 -3.3,1.032 -2.4,1.082 -8.754,4.835 -2.598,1.435 -2.103,1.627 -7.547,6.56 -2.718,2.362 -6.025,7.981 -2.032,2.693 -4.187,9.081 -1.341,2.908 -1.165,2.97 -2.148,9.767 -0.741,3.367 0.017,10 0.006,3.322 2.191,9.757 0.72,3.205 4.236,9.059 1.413,3.021 1.561,3.256 6.086,7.934 1.948,2.539 2.677,2.271"
         inkscape:connector-curvature="0" />
      <path
         style="fill:none;stroke:#000000;stroke-width:3;stroke-linecap:butt;stroke-linejoin:round;stroke-opacity:1"
         id="path22"
         d="m 856.387,269.385 -3.938,1.155 -9.475,3.195 -5.209,1.756 -1.766,0.903 -2.294,1.171 -4.946,2.999 -8.551,5.184 -0.546,0.331 -7.257,6.88 -4.379,4.153 -3.563,3.755 -5.652,8.249 -1.249,1.823 -2.449,3.575 -3.779,9.259 -2.378,5.827 -1.056,5.276 -1.725,9.85 -1.126,6.423 0.279,6.979 0.376,9.39 2.501,9.683 1.598,6.187 2.269,5.929 4.489,8.936 2.733,5.439 6.292,7.773 3.84,4.744 4.387,4.906 7.875,6.163 3.916,3.066 5.374,3.832 7.042,3.588 9.239,3.826 0.608,0.252 5.802,2.19 6.513,1.811 6.963,1.356 7.127,0.838 6.995,0.284 6.57,-0.284 8.922,-1.217 8.624,-1.232 7.207,-1.987 9.141,-4.053 3.781,-1.677 6.985,-3.369 7.917,-6.109 4.612,-3.558 5.195,-4.697 6.309,-7.759 4.258,-5.237 4.376,-8.992 3.013,-6.19 2.207,-5.883 2.239,-9.746 1.591,-6.925 0.009,-10 0.006,-7.299 -2.181,-9.76 -1.663,-7.441 -1.466,-5.21 -4.238,-9.057 -3.087,-6.599 -3.782,-4.965 -6.059,-7.956 -0.831,-1.091 -3.527,-3.738 -7.598,-6.501 -5.126,-4.387 -4.554,-2.795 -8.824,-4.706 -4.712,-2.514 -4.245,-1.793 -1.829,-0.569 -3.42,-1.066 -6.047,-1.419 -2.074,-0.469 -5.467,-1.237 -3.404,-0.593 -3.585,-0.44 -3.634,-0.27 -3.55,-0.091 -3.335,0.091 -8.83,0.478 -5.809,0.523 -4.965,0.853"
         inkscape:connector-curvature="0" />
      <path
         style="fill:none;stroke:#000000;stroke-width:3;stroke-linecap:butt;stroke-linejoin:round;stroke-opacity:1"
         id="path24"
         d="m 957.812,309.075 2.677,-2.271 6.086,-7.935 1.948,-2.538 1.561,-3.256 4.236,-9.058 1.413,-3.022 2.191,-9.757 0.72,-3.205 0.017,-10 0.006,-3.322 -2.148,-9.767 -0.741,-3.367 -1.165,-2.97 -4.187,-9.081 -1.341,-2.908 -6.024,-7.981 -2.033,-2.693 -7.548,-6.56 -2.717,-2.362 -2.103,-1.627 -8.753,-4.835 -2.599,-1.435 -2.4,-1.082 -3.3,-1.032 -9.61,-2.765 -0.198,-0.057 -2.067,-0.479 -2.388,-0.418 -2.617,-0.341 -2.748,-0.254 -2.777,-0.155 -2.702,-0.053 -2.526,0.053 -2.257,0.155 -1.904,0.254 -9.892,1.464 -1.107,0.164 -2.904,0.669 -9.332,3.593 -2.156,0.83 -2.911,1.205 -8.423,5.389 -2.554,1.634 -1.946,1.808 -7.164,6.977 -2.402,2.339 -5.623,8.269 -1.731,2.544 -3.811,9.245 -0.943,2.285"
         inkscape:connector-curvature="0" />
      <path
         style="fill:none;stroke:#000000;stroke-width:3;stroke-linecap:butt;stroke-linejoin:round;stroke-opacity:1"
         id="path26"
         d="m 553.265,514.895 8.784,-4.78 3.148,-1.713 8.518,-5.239 0.229,-0.141 7.206,-6.933 4.422,-4.254 7.112,-6.978 5.406,-8.413 4.23,-6.584 4.07,-8.002 3.414,-9.399 2.955,-8.139 1.318,-9.913 1.179,-8.866 0.19,-8.174 -0.8,-9.968 -0.712,-8.861 -2.872,-9.579 -2.608,-8.694 -3.364,-6.777 -4.809,-8.767 -4.021,-7.331 -6.574,-7.536 -5.613,-6.434 -4.979,-4.553 -8.07,-5.906 -5.879,-4.302 -5.722,-3.17 -9.247,-3.808 -5.157,-2.124 -5.084,-1.877 -4.714,-1.184 -1.365,-0.343 -6.849,-1.126 -7.371,-0.69 -7.636,-0.232 -7.636,0.232 -7.371,0.69 -6.849,1.126 -1.365,0.343 -4.714,1.184 -5.083,1.877 -9.247,3.808 -5.158,2.124 -5.722,3.17 -8.07,5.906 -5.879,4.302 -4.979,4.553 -6.574,7.536 -5.612,6.434 -4.81,8.767 -4.021,7.331 -3.364,6.777 -2.873,9.579 -2.607,8.694 -0.801,9.968 -0.711,8.861 0.19,8.174 1.318,9.913 1.179,8.866 3.413,9.399 2.956,8.139 4.07,8.002 5.406,8.413 4.23,6.584 7.112,6.978 7.207,6.934 4.421,4.253 8.518,5.239 0.229,0.141 8.784,4.779 3.148,1.714"
         inkscape:connector-curvature="0" />
      <path
         style="fill:none;stroke:#000000;stroke-width:3;stroke-linecap:butt;stroke-linejoin:round;stroke-opacity:1"
         id="path28"
         d="m 491.412,275.618 -0.319,4.946 -0.44,6.827 -0.642,9.979 -0.643,9.979 -0.589,9.147"
         inkscape:connector-curvature="0" />
      <path
         style="fill:none;stroke:#000000;stroke-width:3;stroke-linecap:butt;stroke-linejoin:round;stroke-opacity:1"
         id="path30"
         d="m 530.059,236.342 -0.311,-4.837 -0.643,-9.979 -0.642,-9.98 -0.643,-9.979 -0.643,-9.979 -0.503,-7.82"
         inkscape:connector-curvature="0" />
      <path
         style="fill:none;stroke:#000000;stroke-width:3;stroke-linecap:butt;stroke-linejoin:round;stroke-opacity:1"
         id="path32"
         d="m 535.221,316.496 -0.643,-9.979 -0.642,-9.98 -0.59,-9.146 -0.439,-6.827 -0.319,-4.946"
         inkscape:connector-curvature="0" />
      <path
         style="fill:none;stroke:#000000;stroke-width:3;stroke-linecap:butt;stroke-linejoin:round;stroke-opacity:1"
         id="path34"
         d="m 493.36,245.359 -9.711,2.386 -9.711,2.386 -9.711,2.386 -9.712,2.386 -9.711,2.385 -9.966,2.449 -9.711,2.386 -9.711,2.386 -9.711,2.386 -9.712,2.386 -9.711,2.386 -9.711,2.386 -9.711,2.386 -9.711,2.386 -7.078,1.739 -9.711,2.386 -9.711,2.386 -9.711,2.385 -9.712,2.386 -9.711,2.386 -9.711,2.386 -9.711,2.386 -9.711,2.386 -9.712,2.386 -9.711,2.386 -9.711,2.386 -9.711,2.386 -7.099,1.744"
         inkscape:connector-curvature="0" />
      <path
         style="fill:none;stroke:#000000;stroke-width:3;stroke-linecap:butt;stroke-linejoin:round;stroke-opacity:1"
         id="path36"
         d="m 680.512,199.377 -9.711,2.386 -9.712,2.386 -9.711,2.386 -9.711,2.386 -9.711,2.386 -9.711,2.386 -9.711,2.386 -9.712,2.386 -9.711,2.386 -9.711,2.386 -9.711,2.386 -9.711,2.386 -9.712,2.386 -9.711,2.385 -9.711,2.386 -4.785,1.176 -9.711,2.386 -8.348,2.051"
         inkscape:connector-curvature="0" />
      <path
         style="fill:none;stroke:#000000;stroke-width:3;stroke-linecap:butt;stroke-linejoin:round;stroke-opacity:1"
         id="path38"
         d="m 654.602,241.367 9.628,-2.703 9.628,-2.703 9.627,-2.703 5.485,-1.539"
         inkscape:connector-curvature="0" />
      <path
         style="fill:none;stroke:#000000;stroke-width:3;stroke-linecap:butt;stroke-linejoin:round;stroke-opacity:1"
         id="path40"
         d="m 238.672,358.128 9.627,-2.703 9.628,-2.703 9.628,-2.703 9.628,-2.702 9.628,-2.703 9.628,-2.703 9.627,-2.703 9.628,-2.702 9.628,-2.703 9.628,-2.703 9.628,-2.703 9.627,-2.702 9.628,-2.703 9.628,-2.703 9.628,-2.703 9.628,-2.702 9.628,-2.703 9.627,-2.703 9.628,-2.703 9.628,-2.702 9.628,-2.703 9.628,-2.703 9.628,-2.703 9.627,-2.702 9.628,-2.703 11.286,-3.168"
         inkscape:connector-curvature="0" />
      <path
         style="fill:none;stroke:#000000;stroke-width:3;stroke-linecap:butt;stroke-linejoin:round;stroke-opacity:1"
         id="path42"
         d="m 533.346,287.391 9.628,2.702 9.628,2.703 9.628,2.703 9.628,2.703 9.628,2.702 9.628,2.703 9.627,2.703 9.628,2.703 9.628,2.702 9.628,2.703 9.628,2.703 9.627,2.703 9.628,2.702 9.628,2.703 9.628,2.703 9.628,2.703 9.628,2.702 9.627,2.703 9.628,2.703 9.628,2.703 9.628,2.702 9.628,2.703 9.628,2.703 9.627,2.703 9.628,2.702 11.286,3.169"
         inkscape:connector-curvature="0" />
      <path
         style="fill:none;stroke:#000000;stroke-width:3;stroke-linecap:butt;stroke-linejoin:round;stroke-opacity:1"
         id="path44"
         d="m 335.03,231.719 9.628,2.702 9.628,2.703 9.628,2.703 5.484,1.54"
         inkscape:connector-curvature="0" />
      <path
         style="fill:none;stroke:#000000;stroke-width:3;stroke-linecap:butt;stroke-linejoin:round;stroke-opacity:1"
         id="path46"
         d="m 512,240.779 -9.711,-2.386 -8.348,-2.051 -9.711,-2.386 -9.712,-2.386 -9.711,-2.386 -9.711,-2.386 -9.711,-2.386 -9.711,-2.386 -9.712,-2.386 -9.711,-2.386 -9.711,-2.386 -9.711,-2.386 -9.711,-2.385 -9.712,-2.386 -9.711,-2.386 -9.711,-2.386 -9.711,-2.386 -4.785,-1.176"
         inkscape:connector-curvature="0" />
      <path
         style="fill:none;stroke:#000000;stroke-width:3;stroke-linecap:butt;stroke-linejoin:round;stroke-opacity:1"
         id="path48"
         d="m 797.562,310.939 -9.711,-2.386 -9.712,-2.386 -9.711,-2.386 -9.711,-2.386 -9.711,-2.386 -9.711,-2.386 -9.712,-2.386 -9.711,-2.386 -9.711,-2.385 -9.711,-2.386 -9.711,-2.386 -9.711,-2.386 -7.099,-1.744 -9.711,-2.386 -9.712,-2.386 -9.711,-2.386 -9.711,-2.386 -9.711,-2.386 -9.711,-2.386 -9.711,-2.386 -9.712,-2.386 -7.077,-1.739 -9.711,-2.386 -9.712,-2.386 -9.711,-2.386 -9.711,-2.386 -9.711,-2.386 -9.966,-2.448"
         inkscape:connector-curvature="0" />
      <path
         style="fill:none;stroke:#000000;stroke-width:3;stroke-linecap:butt;stroke-linejoin:round;stroke-opacity:1"
         id="path50"
         d="m 673.929,280.564 h 10 10 10 10 10 10 10 10 10 10 10 10 10 10 10 4.83"
         inkscape:connector-curvature="0" />
      <path
         style="fill:none;stroke:#000000;stroke-width:3;stroke-linecap:butt;stroke-linejoin:round;stroke-opacity:1"
         id="path52"
         d="m 195.241,280.564 h 10 10 10 10 10 10 10 10 10 10 10 10 10 10 10 4.83"
         inkscape:connector-curvature="0" />
      <path
         style="fill:none;stroke:#000000;stroke-width:3;stroke-linecap:butt;stroke-linejoin:round;stroke-opacity:1"
         id="path54"
         d="m 509.609,241.367 h -10 -5.992 -10 -10 -10 -10 -10 -10 -10 -10 -10 -10 -10 -10 -4.219 -10 -10 -10 -10 -2.464 -10 -10 -10 -10 -10 -10 -10 -8.26 -10 -10 -10 -10 -10 -10 -1.589"
         inkscape:connector-curvature="0" />
      <path
         style="fill:none;stroke:#000000;stroke-width:3;stroke-linecap:butt;stroke-linejoin:round;stroke-opacity:1"
         id="path56"
         d="m 836.915,241.366 h -10 l -10,10e-4 h -10 -10 -10 -10 -1.589 -10 -10 -10 -10 -10 -10 -10 -8.26 -10 -10 -10 -10 -2.464 -10 -10 -10 -10 -10 -10 -10 -10 -10 -10 -10 -10 -4.219 -10 -5.992"
         inkscape:connector-curvature="0" />
    </g>
    <g
       id="layer1">
      <circle
         r="51.796612"
         cy="131.46204"
         cx="512"
         id="path4197"
         style="opacity:1;fill:#ff6d4c;fill-opacity:1;stroke:none;stroke-width:0.69999999;stroke-linecap:butt;stroke-linejoin:round;stroke-miterlimit:4;stroke-dasharray:none;stroke-dashoffset:0;stroke-opacity:1" />
    </g>
    <g
       id="layer2">
      <circle
         r="57.554356"
         cy="151.44643"
         cx="287.31055"
         id="path4202"
         style="opacity:1;fill:#ff4c9f;fill-opacity:1;stroke:none;stroke-width:0.69999999;stroke-linecap:butt;stroke-linejoin:round;stroke-miterlimit:4;stroke-dasharray:none;stroke-dashoffset:0;stroke-opacity:1" />
      <circle
         r="57.554356"
         cy="151.44643"
         cx="736.68921"
         id="path4202-7"
         style="opacity:1;fill:#ff4c9f;fill-opacity:1;stroke:none;stroke-width:0.69999999;stroke-linecap:butt;stroke-linejoin:round;stroke-miterlimit:4;stroke-dasharray:none;stroke-dashoffset:0;stroke-opacity:1" />
    </g>
    <g
       id="layer3">
      <circle
         r="71.416176"
         cy="211.18925"
         cx="116.15237"
         id="path4221"
         style="opacity:1;fill:#f34cff;fill-opacity:1;stroke:none;stroke-width:0.69999999;stroke-linecap:butt;stroke-linejoin:round;stroke-miterlimit:4;stroke-dasharray:none;stroke-dashoffset:0;stroke-opacity:1" />
      <circle
         r="71.416176"
         cy="211.18925"
         cx="907.84766"
         id="path4221-5"
         style="opacity:1;fill:#f34cff;fill-opacity:1;stroke:none;stroke-width:0.69999999;stroke-linecap:butt;stroke-linejoin:round;stroke-miterlimit:4;stroke-dasharray:none;stroke-dashoffset:0;stroke-opacity:1" />
    </g>
    <g
       id="layer4">
      <circle
         r="94.925903"
         cy="306.66458"
         cx="144.36099"
         id="path4244"
         style="opacity:1;fill:#904cff;fill-opacity:1;stroke:none;stroke-width:0.69999999;stroke-linecap:butt;stroke-linejoin:round;stroke-miterlimit:4;stroke-dasharray:none;stroke-dashoffset:0;stroke-opacity:1" />
      <circle
         r="94.925903"
         cy="306.66458"
         cx="879.63892"
         id="path4244-9"
         style="opacity:1;fill:#904cff;fill-opacity:1;stroke:none;stroke-width:0.69999999;stroke-linecap:butt;stroke-linejoin:round;stroke-miterlimit:4;stroke-dasharray:none;stroke-dashoffset:0;stroke-opacity:1" />
    </g>
    <g
       id="layer5">
      <circle
         r="106.98959"
         cy="367.2063"
         cx="512"
         id="path4262"
         style="opacity:1;fill:#4c90ff;fill-opacity:1;stroke:none;stroke-width:0.69999999;stroke-linecap:butt;stroke-linejoin:round;stroke-miterlimit:4;stroke-dasharray:none;stroke-dashoffset:0;stroke-opacity:1" />
      <path
         id="rect4266"
         d="m 494.23399,155.42814 h 35.48306 l 6.61538,107.59222 -48.88704,0.0521 z"
         style="opacity:1;fill:url(#linearGradient5791);fill-opacity:1;stroke:none;stroke-width:0.69999999;stroke-linecap:butt;stroke-linejoin:round;stroke-miterlimit:4;stroke-dasharray:none;stroke-dashoffset:0;stroke-opacity:1"
         inkscape:connector-curvature="0" />
      <path
         id="rect4266-7"
         d="m 684.9523,145.59073 9.97928,34.70816 -462.04061,129.83612 -13.93152,-50.02842 z"
         style="opacity:1;fill:url(#linearGradient5839);fill-opacity:1;stroke:none;stroke-width:0.69999999;stroke-linecap:butt;stroke-linejoin:round;stroke-miterlimit:4;stroke-dasharray:none;stroke-dashoffset:0;stroke-opacity:1"
         inkscape:connector-curvature="0" />
      <path
         id="rect4266-7-8"
         d="m 339.43897,145.57593 -9.97928,34.70816 462.04062,129.83612 13.93151,-50.02842 z"
         style="opacity:1;fill:url(#linearGradient5831);fill-opacity:1;stroke:none;stroke-width:0.69999999;stroke-linecap:butt;stroke-linejoin:round;stroke-miterlimit:4;stroke-dasharray:none;stroke-dashoffset:0;stroke-opacity:1"
         inkscape:connector-curvature="0" />
      <path
         id="rect4266-7-5"
         d="m 845.23816,188.59636 -0.0987,41.94876 -665.85698,0.28947 -1.66649,-42.39305 z"
         style="opacity:1;fill:url(#linearGradient5789);fill-opacity:1;stroke:none;stroke-width:0.69999999;stroke-linecap:butt;stroke-linejoin:round;stroke-miterlimit:4;stroke-dasharray:none;stroke-dashoffset:0;stroke-opacity:1"
         inkscape:connector-curvature="0" />
      <flowRoot
         style="font-style:normal;font-variant:normal;font-weight:normal;font-stretch:normal;font-size:40px;line-height:125%;font-family:'Altera 6';-inkscape-font-specification:'Altera 6, ';text-align:center;letter-spacing:0px;word-spacing:0px;text-anchor:middle;fill:#000000;fill-opacity:1;stroke:none;stroke-width:1px;stroke-linecap:butt;stroke-linejoin:miter;stroke-opacity:1"
         id="flowRoot5873"
         xml:space="preserve"><flowRegion
           id="flowRegion5875"><rect
             style="font-style:normal;font-variant:normal;font-weight:normal;font-stretch:normal;font-family:'Altera 6';-inkscape-font-specification:'Altera 6, ';text-align:center;text-anchor:middle"
             y="19.053255"
             x="40.016193"
             height="99.380875"
             width="952.91309"
             id="rect5877" /></flowRegion><flowPara
           id="flowPara5879" /></flowRoot>      <g
         aria-label="IPHiST"
         style="font-style:normal;font-weight:normal;font-size:137.37171936px;line-height:85.85732269px;font-family:sans-serif;letter-spacing:0px;word-spacing:0px;fill:#0e0d00;fill-opacity:0.96019897;stroke:none;stroke-width:3.43429279px;stroke-linecap:butt;stroke-linejoin:miter;stroke-opacity:1"
         id="text4561"
         inkscape:path-effect="#path-effect4621"
         transform="matrix(1.1446767,0,0,1.1446767,-62.740592,-42.364656)">
        <path
           d="m 263.10623,428.71615 c 0,1.46529 -0.73265,2.19794 -2.19795,2.19794 0,0 -21.8421,0 -21.8421,0 -1.4653,0 -2.19795,-0.73265 -2.19795,-2.19794 0,0 0,-90.52797 0,-90.52797 0,-1.4653 0.73265,-2.19795 2.19795,-2.19795 0,0 21.8421,0 21.8421,0 1.4653,0 2.19795,0.73265 2.19795,2.19795 0,0 0,90.52797 0,90.52797 z"
           style="font-style:normal;font-variant:normal;font-weight:normal;font-stretch:normal;font-size:137.37171936px;font-family:Rexlia;-inkscape-font-specification:'Rexlia, Normal';font-variant-ligatures:normal;font-variant-caps:normal;font-variant-numeric:normal;font-feature-settings:normal;text-align:center;writing-mode:lr-tb;text-anchor:middle;fill:#0e0d00;fill-opacity:0.96019897;stroke-width:3.43429279px"
           id="path4608"
           inkscape:original-d="m 263.10623,428.71615 q 0,2.19794 -2.19795,2.19794 h -21.8421 q -2.19795,0 -2.19795,-2.19794 v -90.52797 q 0,-2.19795 2.19795,-2.19795 h 21.8421 q 2.19795,0 2.19795,2.19795 z"
           inkscape:connector-curvature="0" />
        <path
           d="m 387.92132,350.27689 c 0.82423,0.82423 1.23634,1.83163 1.23634,3.02218 0,0 0,21.56736 0,21.56736 0,1.37372 -0.41211,2.38111 -1.23634,3.02218 0,0 -17.30884,16.62198 -17.30884,16.62198 -1.4653,1.46529 -3.25113,2.19794 -5.3575,2.19794 0,0 -61.26778,0 -61.26778,0 0,0 0,32.00762 0,32.00762 0,1.46529 -0.73265,2.19794 -2.19795,2.19794 0,0 -21.56736,0 -21.56736,0 -1.37372,0 -2.06058,-0.73265 -2.06058,-2.19794 0,0 0,-88.74214 0,-88.74214 0,-2.65585 1.28214,-3.98378 3.84641,-3.98378 0,0 88.60476,0 88.60476,0 1.64846,0 3.02218,0.54949 4.12115,1.64847 0,0 13.18769,12.63819 13.18769,12.63819 z m -31.87024,1.09898 c -0.64107,-0.64107 -1.4653,-0.9616 -2.47269,-0.9616 0,0 -47.25587,0 -47.25587,0 -1.55688,0 -2.33532,0.77844 -2.33532,2.33531 0,0 0,29.94704 0,29.94704 0,0 46.84375,0 46.84375,0 1.37372,0 2.56428,-0.5037 3.57167,-1.51109 0,0 7.69282,-7.41807 7.69282,-7.41807 0.82423,-0.82423 1.23634,-1.83163 1.23634,-3.02218 0,0 0,-10.85237 0,-10.85237 0,-1.00739 -0.41211,-1.9232 -1.23634,-2.74743 0,0 -6.04436,-5.76961 -6.04436,-5.76961 z"
           style="font-style:normal;font-variant:normal;font-weight:normal;font-stretch:normal;font-size:137.37171936px;font-family:Rexlia;-inkscape-font-specification:'Rexlia, Normal';font-variant-ligatures:normal;font-variant-caps:normal;font-variant-numeric:normal;font-feature-settings:normal;text-align:center;writing-mode:lr-tb;text-anchor:middle;fill:#0e0d00;fill-opacity:0.96019897;stroke-width:3.43429279px"
           id="path4610"
           inkscape:original-d="m 387.92132,350.27689 q 1.23634,1.23635 1.23634,3.02218 v 21.56736 q 0,2.06058 -1.23634,3.02218 l -17.30884,16.62198 q -2.19795,2.19794 -5.3575,2.19794 H 303.9872 v 32.00762 q 0,2.19794 -2.19795,2.19794 h -21.56736 q -2.06058,0 -2.06058,-2.19794 v -88.74214 q 0,-3.98378 3.84641,-3.98378 h 88.60476 q 2.47269,0 4.12115,1.64847 z m -31.87024,1.09898 q -0.9616,-0.9616 -2.47269,-0.9616 h -47.25587 q -2.33532,0 -2.33532,2.33531 v 29.94704 h 46.84375 q 2.06058,0 3.57167,-1.51109 l 7.69282,-7.41807 q 1.23634,-1.23635 1.23634,-3.02218 v -10.85237 q 0,-1.51108 -1.23634,-2.74743 z"
           inkscape:connector-curvature="0" />
        <path
           d="m 510.56851,428.71615 c 0,1.46529 -0.73265,2.19794 -2.19795,2.19794 0,0 -21.29262,0 -21.29262,0 -1.46529,0 -2.19794,-0.73265 -2.19794,-2.19794 0,0 0,-39.70043 0,-39.70043 0,0 -59.34459,0 -59.34459,0 0,0 0,39.70043 0,39.70043 0,1.46529 -0.73265,2.19794 -2.19794,2.19794 0,0 -21.84211,0 -21.84211,0 -1.37371,0 -2.06057,-0.73265 -2.06057,-2.19794 0,0 0,-90.52797 0,-90.52797 0,-1.4653 0.68686,-2.19795 2.06057,-2.19795 0,0 21.84211,0 21.84211,0 1.46529,0 2.19794,0.73265 2.19794,2.19795 0,0 0,37.09037 0,37.09037 0,0 59.34459,0 59.34459,0 0,0 0,-37.09037 0,-37.09037 0,-1.4653 0.73265,-2.19795 2.19794,-2.19795 0,0 21.29262,0 21.29262,0 1.4653,0 2.19795,0.73265 2.19795,2.19795 0,0 0,90.52797 0,90.52797 z"
           style="font-style:normal;font-variant:normal;font-weight:normal;font-stretch:normal;font-size:137.37171936px;font-family:Rexlia;-inkscape-font-specification:'Rexlia, Normal';font-variant-ligatures:normal;font-variant-caps:normal;font-variant-numeric:normal;font-feature-settings:normal;text-align:center;writing-mode:lr-tb;text-anchor:middle;fill:#0e0d00;fill-opacity:0.96019897;stroke-width:3.43429279px"
           id="path4612"
           inkscape:original-d="m 510.56851,428.71615 q 0,2.19794 -2.19795,2.19794 h -21.29262 q -2.19794,0 -2.19794,-2.19794 v -39.70043 h -59.34459 v 39.70043 q 0,2.19794 -2.19794,2.19794 h -21.84211 q -2.06057,0 -2.06057,-2.19794 v -90.52797 q 0,-2.19795 2.06057,-2.19795 h 21.84211 q 2.19794,0 2.19794,2.19795 v 37.09037 H 484.88 v -37.09037 q 0,-2.19795 2.19794,-2.19795 h 21.29262 q 2.19795,0 2.19795,2.19795 z"
           inkscape:connector-curvature="0" />
        <path
           d="m 544.93933,428.71615 c 0,1.46529 -0.73265,2.19794 -2.19795,2.19794 0,0 -15.79775,0 -15.79775,0 -1.37371,0 -2.06057,-0.73265 -2.06057,-2.19794 0,0 0,-71.02118 0,-71.02118 0,-1.4653 0.68686,-2.19795 2.06057,-2.19795 0,0 15.79775,0 15.79775,0 1.4653,0 2.19795,0.73265 2.19795,2.19795 0,0 0,71.02118 0,71.02118 z m 0,-82.83515 c 0,1.37371 -0.73265,2.06057 -2.19795,2.06057 0,0 -15.79775,0 -15.79775,0 -1.37371,0 -2.06057,-0.68686 -2.06057,-2.06057 0,0 0,-14.01192 0,-14.01192 0,-1.46529 0.68686,-2.19794 2.06057,-2.19794 0,0 15.79775,0 15.79775,0 1.4653,0 2.19795,0.73265 2.19795,2.19794 0,0 0,14.01192 0,14.01192 z"
           style="font-style:normal;font-variant:normal;font-weight:normal;font-stretch:normal;font-size:137.37171936px;font-family:Rexlia;-inkscape-font-specification:'Rexlia, Normal';font-variant-ligatures:normal;font-variant-caps:normal;font-variant-numeric:normal;font-feature-settings:normal;text-align:center;writing-mode:lr-tb;text-anchor:middle;fill:#0e0d00;fill-opacity:0.96019897;stroke-width:3.43429279px"
           id="path4614"
           inkscape:original-d="m 544.93933,428.71615 q 0,2.19794 -2.19795,2.19794 h -15.79775 q -2.06057,0 -2.06057,-2.19794 v -71.02118 q 0,-2.19795 2.06057,-2.19795 h 15.79775 q 2.19795,0 2.19795,2.19795 z m 0,-82.83515 q 0,2.06057 -2.19795,2.06057 h -15.79775 q -2.06057,0 -2.06057,-2.06057 v -14.01192 q 0,-2.19794 2.06057,-2.19794 h 15.79775 q 2.19795,0 2.19795,2.19794 z"
           inkscape:connector-curvature="0" />
        <path
           d="m 663.47182,348.35369 c 0,1.37372 -0.73265,2.06058 -2.19795,2.06058 0,0 -67.72425,0 -67.72425,0 -1.19056,0 -2.19795,0.41211 -3.02218,1.23634 0,0 -4.80801,4.67064 -4.80801,4.67064 -0.82423,0.73265 -1.23635,1.64846 -1.23635,2.74743 0,0 0,7.83019 0,7.83019 0,0.64107 0.27474,1.23634 0.82423,1.78583 0,0 5.49487,5.3575 5.49487,5.3575 0.54949,0.54949 1.14476,0.82423 1.78583,0.82423 0,0 55.91029,0 55.91029,0 1.92321,0 3.52588,0.64107 4.80801,1.92321 0,0 10.02814,10.71499 10.02814,10.71499 1.19055,1.28213 1.78583,2.70164 1.78583,4.25852 0,0 0,21.29262 0,21.29262 0,1.4653 -0.54949,2.74744 -1.64846,3.84641 0,0 -12.6382,12.08871 -12.6382,12.08871 -1.55688,1.28213 -3.20534,1.9232 -4.94538,1.9232 0,0 -86.54418,0 -86.54418,0 -1.37372,0 -2.06058,-0.73265 -2.06058,-2.19794 0,0 0,-10.02814 0,-10.02814 0,-1.4653 0.68686,-2.19795 2.06058,-2.19795 0,0 71.57066,0 71.57066,0 1.19056,0 2.24374,-0.32053 3.15955,-0.9616 0,0 4.67064,-4.80801 4.67064,-4.80801 0.64107,-0.64107 0.9616,-1.37372 0.9616,-2.19795 0,0 0,-10.71499 0,-10.71499 -0.0916,-0.27475 -0.36632,-0.64107 -0.82423,-1.09898 0,0 -5.35749,-5.22012 -5.35749,-5.22012 -0.54949,-0.54949 -1.41951,-0.91581 -2.61007,-1.09897 0,0 -57.284,0 -57.284,0 -1.09897,0 -2.01479,-0.36633 -2.74744,-1.09898 0,0 -10.30288,-11.40185 -10.30288,-11.40185 -0.73265,-0.73265 -1.23634,-1.41951 -1.51109,-2.06058 -0.18316,-0.64107 -0.27474,-1.4653 -0.27474,-2.47269 0,0 0,-20.33101 0,-20.33101 0,-1.00739 0.22895,-1.78583 0.68686,-2.33532 0.54949,-0.64107 1.19055,-1.28214 1.9232,-1.92321 0,0 11.81397,-11.1271 11.81397,-11.1271 1.09897,-1.09898 2.47269,-1.64847 4.12115,-1.64847 0,0 83.93412,0 83.93412,0 1.4653,0 2.19795,0.73265 2.19795,2.19795 0,0 0,10.16551 0,10.16551 z"
           style="font-style:normal;font-variant:normal;font-weight:normal;font-stretch:normal;font-size:137.37171936px;font-family:Rexlia;-inkscape-font-specification:'Rexlia, Normal';font-variant-ligatures:normal;font-variant-caps:normal;font-variant-numeric:normal;font-feature-settings:normal;text-align:center;writing-mode:lr-tb;text-anchor:middle;fill:#0e0d00;fill-opacity:0.96019897;stroke-width:3.43429279px"
           id="path4616"
           inkscape:original-d="m 663.47182,348.35369 q 0,2.06058 -2.19795,2.06058 h -67.72425 q -1.78584,0 -3.02218,1.23634 l -4.80801,4.67064 q -1.23635,1.09897 -1.23635,2.74743 v 7.83019 q 0,0.9616 0.82423,1.78583 l 5.49487,5.3575 q 0.82423,0.82423 1.78583,0.82423 h 55.91029 q 2.88481,0 4.80801,1.92321 l 10.02814,10.71499 q 1.78583,1.9232 1.78583,4.25852 v 21.29262 q 0,2.19795 -1.64846,3.84641 l -12.6382,12.08871 q -2.33532,1.9232 -4.94538,1.9232 h -86.54418 q -2.06058,0 -2.06058,-2.19794 v -10.02814 q 0,-2.19795 2.06058,-2.19795 h 71.57066 q 1.78584,0 3.15955,-0.9616 l 4.67064,-4.80801 q 0.9616,-0.9616 0.9616,-2.19795 v -10.71499 q -0.13737,-0.41212 -0.82423,-1.09898 l -5.35749,-5.22012 q -0.82423,-0.82423 -2.61007,-1.09897 h -57.284 q -1.64846,0 -2.74744,-1.09898 L 560.5804,377.88861 q -1.09897,-1.09897 -1.51109,-2.06058 -0.27474,-0.9616 -0.27474,-2.47269 v -20.33101 q 0,-1.51109 0.68686,-2.33532 0.82423,-0.9616 1.9232,-1.92321 l 11.81397,-11.1271 q 1.64846,-1.64847 4.12115,-1.64847 h 83.93412 q 2.19795,0 2.19795,2.19795 z"
           inkscape:connector-curvature="0" />
        <path
           d="m 774.6506,348.90318 c 0,1.46529 -0.68686,2.19794 -2.06057,2.19794 0,0 -35.71665,0 -35.71665,0 0,0 0,77.61503 0,77.61503 0,1.46529 -0.73265,2.19794 -2.19795,2.19794 0,0 -21.97947,0 -21.97947,0 -1.37372,0 -2.06058,-0.73265 -2.06058,-2.19794 0,0 0,-77.61503 0,-77.61503 0,0 -35.85402,0 -35.85402,0 -1.46529,0 -2.19794,-0.73265 -2.19794,-2.19794 0,0 0,-10.715 0,-10.715 0,-1.4653 0.73265,-2.19795 2.19794,-2.19795 0,0 97.80867,0 97.80867,0 1.37371,0 2.06057,0.73265 2.06057,2.19795 0,0 0,10.715 0,10.715 z"
           style="font-style:normal;font-variant:normal;font-weight:normal;font-stretch:normal;font-size:137.37171936px;font-family:Rexlia;-inkscape-font-specification:'Rexlia, Normal';font-variant-ligatures:normal;font-variant-caps:normal;font-variant-numeric:normal;font-feature-settings:normal;text-align:center;writing-mode:lr-tb;text-anchor:middle;fill:#0e0d00;fill-opacity:0.96019897;stroke-width:3.43429279px"
           id="path4618"
           inkscape:original-d="m 774.6506,348.90318 q 0,2.19794 -2.06057,2.19794 h -35.71665 v 77.61503 q 0,2.19794 -2.19795,2.19794 h -21.97947 q -2.06058,0 -2.06058,-2.19794 v -77.61503 h -35.85402 q -2.19794,0 -2.19794,-2.19794 v -10.715 q 0,-2.19795 2.19794,-2.19795 h 97.80867 q 2.06057,0 2.06057,2.19795 z"
           inkscape:connector-curvature="0" />
      </g>
    </g>
  </g>
</svg>
